<mxfile host="app.diagrams.net" modified="2022-10-05T19:43:46.668Z" agent="5.0 (Macintosh; Intel Mac OS X 10_15_7) AppleWebKit/605.1.15 (KHTML, like Gecko) Version/16.0 Safari/605.1.15" etag="l8gr2eC0enlxscQXfRWs" version="20.4.0" type="github">
  <diagram id="vrAFdHm15cio1OfTN8z7" name="Page-1">
    <mxGraphModel dx="1107" dy="927" grid="1" gridSize="10" guides="1" tooltips="1" connect="1" arrows="1" fold="1" page="1" pageScale="1" pageWidth="827" pageHeight="1169" math="0" shadow="0">
      <root>
        <mxCell id="0" />
        <mxCell id="1" parent="0" />
        <mxCell id="35yH4ZSqu1wKVoYt1jwI-2" value="" style="rounded=0;whiteSpace=wrap;html=1;" vertex="1" parent="1">
          <mxGeometry x="160" y="120" width="520" height="920" as="geometry" />
        </mxCell>
        <mxCell id="35yH4ZSqu1wKVoYt1jwI-3" value="&lt;font style=&quot;font-size: 27px;&quot;&gt;Tracker&lt;/font&gt;" style="rounded=0;whiteSpace=wrap;html=1;" vertex="1" parent="1">
          <mxGeometry x="160" y="120" width="520" height="80" as="geometry" />
        </mxCell>
        <mxCell id="35yH4ZSqu1wKVoYt1jwI-4" value="&lt;font style=&quot;font-size: 21px;&quot;&gt;Keep track of &amp;nbsp;repeat customers due a visit.&amp;nbsp;&lt;/font&gt;" style="rounded=0;whiteSpace=wrap;html=1;fontSize=27;" vertex="1" parent="1">
          <mxGeometry x="200" y="20" width="440" height="50" as="geometry" />
        </mxCell>
      </root>
    </mxGraphModel>
  </diagram>
</mxfile>
